<svg width="16" height="17" viewBox="0 0 16 17" fill="none" xmlns="http://www.w3.org/2000/svg">
<path fill-rule="evenodd" clip-rule="evenodd" d="M4.99967 1.33301C5.36786 1.33301 5.66634 1.63148 5.66634 1.99967V2.33302L10.333 2.33303V1.99967C10.333 1.63148 10.6315 1.33301 10.9997 1.33301C11.3679 1.33301 11.6663 1.63148 11.6663 1.99967V2.33303L12.4997 2.33303C13.9724 2.33303 15.1663 3.52694 15.1663 4.9997V12.9997C15.1663 14.4724 13.9724 15.6663 12.4997 15.6663L3.49967 15.6663C2.02691 15.6663 0.833008 14.4724 0.833008 12.9997L0.833008 6.4998L0.833008 4.99968C0.833008 3.52692 2.02692 2.33301 3.49968 2.33301L4.33301 2.33301V1.99967C4.33301 1.63148 4.63148 1.33301 4.99967 1.33301ZM4.33301 3.66635L3.49968 3.66634C2.7633 3.66634 2.16634 4.2633 2.16634 4.99968V5.83301H13.833V4.9997C13.833 4.26332 13.2361 3.66636 12.4997 3.66636L11.6663 3.66636V3.99967C11.6663 4.36786 11.3679 4.66634 10.9997 4.66634C10.6315 4.66634 10.333 4.36786 10.333 3.99967V3.66636L5.66634 3.66635V3.99967C5.66634 4.36786 5.36786 4.66634 4.99967 4.66634C4.63148 4.66634 4.33301 4.36786 4.33301 3.99967V3.66635ZM13.833 7.16634H2.16634L2.16634 12.9997C2.16634 13.7361 2.76329 14.333 3.49967 14.333L12.4997 14.333C13.2361 14.333 13.833 13.7361 13.833 12.9997V7.16634Z" fill="#787A80"/>
</svg>
