<svg width="74" height="12" viewBox="0 0 74 12" fill="none" xmlns="http://www.w3.org/2000/svg">
<path d="M0.257812 0.484375H2.625V5.22656L7.07031 0.484375H10.1797L5.46094 5.22656L10.4219 12H7.32812L3.77344 6.96875L2.625 8.14844V12H0.257812V0.484375ZM20.2969 2.52344H14.2031V4.96875H19.7969V6.96875H14.2031V9.92969H20.5781V12H11.8516V0.484375H20.2969V2.52344ZM30.0859 0.484375H33.5469V12H31.3047V4.21094C31.3047 3.98698 31.3073 3.67448 31.3125 3.27344C31.3177 2.86719 31.3203 2.55469 31.3203 2.33594L29.1406 12H26.8047L24.6406 2.33594C24.6406 2.55469 24.6432 2.86719 24.6484 3.27344C24.6536 3.67448 24.6562 3.98698 24.6562 4.21094V12H22.4141V0.484375H25.9141L28.0078 9.53906L30.0859 0.484375ZM38.1172 2.48438V5.02344H40.9453C41.4505 5.02344 41.8594 4.92969 42.1719 4.74219C42.4896 4.54948 42.6484 4.21094 42.6484 3.72656C42.6484 3.1901 42.4401 2.83594 42.0234 2.66406C41.6641 2.54427 41.2057 2.48438 40.6484 2.48438H38.1172ZM38.1172 6.92969V10H40.9453C41.4505 10 41.8438 9.93229 42.125 9.79688C42.6354 9.54688 42.8906 9.06771 42.8906 8.35938C42.8906 7.76042 42.6432 7.34896 42.1484 7.125C41.8724 7 41.4844 6.9349 40.9844 6.92969H38.1172ZM41.4141 0.484375C42.8255 0.505208 43.8255 0.914062 44.4141 1.71094C44.7682 2.20052 44.9453 2.78646 44.9453 3.46875C44.9453 4.17188 44.7682 4.73698 44.4141 5.16406C44.2161 5.40365 43.9245 5.6224 43.5391 5.82031C44.1276 6.03385 44.5703 6.3724 44.8672 6.83594C45.1693 7.29948 45.3203 7.86198 45.3203 8.52344C45.3203 9.20573 45.1484 9.81771 44.8047 10.3594C44.5859 10.7188 44.3125 11.0208 43.9844 11.2656C43.6146 11.5469 43.1771 11.7396 42.6719 11.8438C42.1719 11.9479 41.6276 12 41.0391 12H35.8203V0.484375H41.4141ZM49.75 2.48438V5.57812H52.4766C53.0182 5.57812 53.4245 5.51562 53.6953 5.39062C54.1745 5.17188 54.4141 4.73958 54.4141 4.09375C54.4141 3.39583 54.1823 2.92708 53.7188 2.6875C53.4583 2.55208 53.0677 2.48438 52.5469 2.48438H49.75ZM53.0469 0.484375C53.8542 0.5 54.474 0.598958 54.9062 0.78125C55.3438 0.963542 55.7135 1.23177 56.0156 1.58594C56.2656 1.8776 56.4635 2.20052 56.6094 2.55469C56.7552 2.90885 56.8281 3.3125 56.8281 3.76562C56.8281 4.3125 56.6901 4.85156 56.4141 5.38281C56.138 5.90885 55.6823 6.28125 55.0469 6.5C55.5781 6.71354 55.9531 7.01823 56.1719 7.41406C56.3958 7.80469 56.5078 8.40365 56.5078 9.21094V9.98438C56.5078 10.5104 56.5286 10.8672 56.5703 11.0547C56.6328 11.3516 56.7786 11.5703 57.0078 11.7109V12H54.3594C54.2865 11.7448 54.2344 11.5391 54.2031 11.3828C54.1406 11.0599 54.1068 10.7292 54.1016 10.3906L54.0859 9.32031C54.0755 8.58594 53.9401 8.09635 53.6797 7.85156C53.4245 7.60677 52.9427 7.48438 52.2344 7.48438H49.75V12H47.3984V0.484375H53.0469ZM61.1094 12H58.7188V0.484375H61.1094V12ZM65.6953 2.48438V10H67.9141C69.0495 10 69.8411 9.4401 70.2891 8.32031C70.5339 7.70573 70.6562 6.97396 70.6562 6.125C70.6562 4.95312 70.4714 4.05469 70.1016 3.42969C69.737 2.79948 69.0078 2.48438 67.9141 2.48438H65.6953ZM68.3203 0.484375C69.0339 0.494792 69.6276 0.578125 70.1016 0.734375C70.9089 1 71.5625 1.48698 72.0625 2.19531C72.4635 2.76823 72.737 3.38802 72.8828 4.05469C73.0286 4.72135 73.1016 5.35677 73.1016 5.96094C73.1016 7.49219 72.7943 8.78906 72.1797 9.85156C71.3464 11.2839 70.0599 12 68.3203 12H63.3594V0.484375H68.3203Z" fill="white"/>
</svg>
