<svg aria-hidden="true" xmlns="http://www.w3.org/2000/svg" xmlns:xlink="http://www.w3.org/1999/xlink"><symbol viewBox="0 0 9 16" id="arrow" xmlns="http://www.w3.org/2000/svg">
<path d="M2 14L8 8L2 2" stroke-width="1.5" stroke-linecap="square" stroke-linejoin="round"/>
</symbol><symbol viewBox="0 0 13 10" id="done" xmlns="http://www.w3.org/2000/svg">
<path d="M1 4.55556L5.77299 9L12 1"/>
</symbol><symbol viewBox="0 0 16 17" id="phone" xmlns="http://www.w3.org/2000/svg">
<path d="M14.8416 14.7299C14.41 15.6125 13.0357 16.2254 11.9848 16.3283C11.2661 16.3965 10.3362 16.4091 7.40415 14.7608C3.65361 12.6535 1.58702 8.3208 1.41978 8.0358C1.26092 7.75179 0.0767194 5.71242 0.303935 3.77337C0.53115 1.83433 1.61965 1.00472 2.06132 0.645535C2.42403 0.350722 2.9769 0.261403 3.49015 0.321545C3.6562 0.341003 3.80449 0.366941 3.93788 0.38942C4.33007 0.452499 4.52522 0.499338 4.71177 1.15645C4.94345 1.97979 5.50457 4.01122 5.57514 4.22153C5.64739 4.43205 5.71133 4.7135 5.54647 4.95958C5.389 5.21509 5.26425 5.32204 5.03941 5.52856C4.81457 5.73508 4.60613 5.88873 4.37931 6.11214C4.17303 6.30543 3.94148 6.51116 4.12308 6.93482C4.30567 7.35004 4.94219 8.73793 5.98096 9.9144C7.32144 11.4327 8.48552 12.004 8.89857 12.2374C9.20645 12.4104 9.59599 12.4235 9.86218 12.1979C10.2006 11.9071 10.6346 11.41 11.0744 10.9222C11.3875 10.5719 11.7318 10.5643 12.0716 10.7411C12.419 10.9102 14.2243 12.0892 14.5954 12.333C14.9662 12.5785 15.2151 12.7036 15.2911 12.882C15.3654 13.0602 15.2734 13.8456 14.8416 14.7299Z"/>
</symbol><symbol viewBox="0 0 28 29" id="telegram" xmlns="http://www.w3.org/2000/svg">
<path fill-rule="evenodd" clip-rule="evenodd" d="M27.5946 14.3532C27.5946 21.9732 21.4173 28.1505 13.7973 28.1505C6.17726 28.1505 0 21.9732 0 14.3532C0 6.73317 6.17726 0.555908 13.7973 0.555908C21.4173 0.555908 27.5946 6.73317 27.5946 14.3532ZM19.6166 8.92508L6.31369 14.0542C5.40192 14.4107 5.41802 14.9154 6.15732 15.15L9.56295 16.2124L17.4631 11.2384C17.8298 10.9947 18.1702 11.1326 17.8919 11.3776L11.4992 17.1529L11.2543 20.6631C11.6107 20.6631 11.7659 20.5079 11.9499 20.324L13.6136 18.7212L17.0629 21.2633C17.6919 21.6197 18.1414 21.4358 18.3093 20.6792L20.5743 10.0082L20.5732 10.0093C20.7733 9.0757 20.234 8.70202 19.6166 8.92508Z"/>
</symbol><symbol viewBox="0 0 14 15" id="top" xmlns="http://www.w3.org/2000/svg">
<path d="M6.95069 14.2007L6.95069 1.26807M6.95069 1.26807L0.484375 7.73438M6.95069 1.26807L13.417 7.73437" stroke-width="1.2"/>
</symbol><symbol viewBox="0 0 28 28" id="whatsapp" xmlns="http://www.w3.org/2000/svg">
<path fill-rule="evenodd" clip-rule="evenodd" d="M13.7938 0H13.8007C21.4082 0 27.5946 6.18981 27.5946 13.7973C27.5946 21.4048 21.4082 27.5946 13.8007 27.5946C10.9947 27.5946 8.39221 26.7599 6.21051 25.3146L0.907172 27.0099L2.62666 21.8842C0.97271 19.6129 0 16.8155 0 13.7973C0 6.18809 6.18636 0 13.7938 0ZM19.1215 21.4309C20.1753 21.2032 21.4964 20.4237 21.8292 19.4838C22.1621 18.5421 22.1621 17.7401 22.0655 17.5694C21.9875 17.4339 21.8031 17.3451 21.5278 17.2126C21.4561 17.1781 21.3783 17.1406 21.2946 17.0985C20.8893 16.8968 18.918 15.9223 18.5455 15.793C18.1798 15.655 17.8315 15.7033 17.5555 16.0931C17.503 16.1665 17.4507 16.2402 17.3986 16.3134C17.0657 16.7816 16.7446 17.2332 16.4776 17.5211C16.2344 17.7798 15.8378 17.8126 15.5049 17.6746C15.4686 17.6595 15.427 17.6427 15.3804 17.6238C14.8534 17.411 13.6844 16.9389 12.2694 15.6792C11.076 14.6168 10.2654 13.2939 10.0308 12.8973C9.80053 12.4993 9.99917 12.266 10.1828 12.0504C10.1862 12.0464 10.1895 12.0424 10.1929 12.0384C10.3113 11.8919 10.4262 11.77 10.5416 11.6474C10.6246 11.5593 10.708 11.4708 10.7931 11.3727C10.8058 11.3581 10.8181 11.344 10.83 11.3302C11.0108 11.1223 11.1185 10.9985 11.2398 10.7397C11.3778 10.4724 11.2795 10.1965 11.1812 9.99294C11.1135 9.85043 10.6957 8.83671 10.3371 7.96647C10.1836 7.59405 10.0409 7.2479 9.94113 7.00756C9.67381 6.36771 9.4703 6.34356 9.06501 6.32631C9.05258 6.32569 9.04004 6.32506 9.02736 6.32442C8.89925 6.31793 8.75817 6.31079 8.6028 6.31079C8.07505 6.31079 7.52488 6.46601 7.19202 6.80577C7.18039 6.81765 7.16827 6.82998 7.15569 6.84277C6.72985 7.27586 5.78125 8.24059 5.78125 10.1637C5.78125 12.0905 7.1484 13.9552 7.40135 14.3003C7.40833 14.3098 7.41445 14.3181 7.41968 14.3253C7.4349 14.3453 7.46359 14.3868 7.50534 14.4473C8.02184 15.1953 10.5376 18.8385 14.289 20.3927C17.4589 21.7068 18.4006 21.5844 19.1215 21.4309Z"/>
</symbol></svg>