<svg width="187" height="137" viewBox="0 0 187 137" fill="none" xmlns="http://www.w3.org/2000/svg">
<g opacity="0.8" clip-path="url(#clip0_2234_8808)">
<path d="M5.3356 33.2957C5.3356 34.8151 4.19226 35.9546 2.6678 35.9546C1.14334 35.9546 0 34.8151 0 33.2957C0 31.7763 1.14334 30.6367 2.6678 30.6367C4.19226 30.6367 5.3356 31.9029 5.3356 33.2957Z" fill="white"/>
<path d="M28.0753 33.2957C28.0753 34.8151 26.932 35.9546 25.4075 35.9546C23.8831 35.9546 22.7397 34.8151 22.7397 33.2957C22.7397 31.7763 23.8831 30.6367 25.4075 30.6367C26.805 30.6367 28.0753 31.9029 28.0753 33.2957Z" fill="white"/>
<path d="M50.6881 33.2957C50.6881 34.8151 49.5448 35.9546 48.0203 35.9546C46.4959 35.9546 45.3525 34.8151 45.3525 33.2957C45.3525 31.7763 46.4959 30.6367 48.0203 30.6367C49.5448 30.6367 50.6881 31.9029 50.6881 33.2957Z" fill="white"/>
<path d="M73.4279 33.2957C73.4279 34.8151 72.2845 35.9546 70.7601 35.9546C69.2356 35.9546 68.0923 34.8151 68.0923 33.2957C68.0923 31.7763 69.2356 30.6367 70.7601 30.6367C72.2845 30.6367 73.4279 31.9029 73.4279 33.2957Z" fill="white"/>
<path d="M96.1676 33.2957C96.1676 34.8151 95.0243 35.9546 93.4998 35.9546C91.9754 35.9546 90.832 34.8151 90.832 33.2957C90.832 31.7763 91.9754 30.6367 93.4998 30.6367C94.8972 30.6367 96.1676 31.9029 96.1676 33.2957Z" fill="white"/>
<path d="M118.908 33.2957C118.908 34.8151 117.765 35.9546 116.24 35.9546C114.716 35.9546 113.572 34.8151 113.572 33.2957C113.572 31.7763 114.716 30.6367 116.24 30.6367C117.765 30.6367 118.908 31.9029 118.908 33.2957Z" fill="white"/>
<path d="M141.52 33.2957C141.52 34.8151 140.377 35.9546 138.852 35.9546C137.328 35.9546 136.185 34.8151 136.185 33.2957C136.185 31.7763 137.328 30.6367 138.852 30.6367C140.377 30.6367 141.52 31.9029 141.52 33.2957Z" fill="white"/>
<path d="M164.26 33.2957C164.26 34.8151 163.117 35.9546 161.592 35.9546C160.068 35.9546 158.924 34.8151 158.924 33.2957C158.924 31.7763 160.068 30.6367 161.592 30.6367C163.117 30.6367 164.26 31.9029 164.26 33.2957Z" fill="white"/>
<path d="M187 33.2957C187 34.8151 185.857 35.9546 184.332 35.9546C182.808 35.9546 181.665 34.8151 181.665 33.2957C181.665 31.7763 182.808 30.6367 184.332 30.6367C185.73 30.6367 187 31.9029 187 33.2957Z" fill="white"/>
<path d="M5.3356 48.614C5.3356 50.1335 4.19226 51.273 2.6678 51.273C1.14334 51.273 0 50.1335 0 48.614C0 47.0946 1.14334 45.9551 2.6678 45.9551C4.19226 45.9551 5.3356 47.0946 5.3356 48.614Z" fill="white"/>
<path d="M28.0753 48.614C28.0753 50.1335 26.932 51.273 25.4075 51.273C23.8831 51.273 22.7397 50.1335 22.7397 48.614C22.7397 47.0946 23.8831 45.9551 25.4075 45.9551C26.805 45.9551 28.0753 47.0946 28.0753 48.614Z" fill="white"/>
<path d="M50.6881 48.614C50.6881 50.1335 49.5448 51.273 48.0203 51.273C46.4959 51.273 45.3525 50.1335 45.3525 48.614C45.3525 47.0946 46.4959 45.9551 48.0203 45.9551C49.5448 45.9551 50.6881 47.0946 50.6881 48.614Z" fill="white"/>
<path d="M73.4279 48.614C73.4279 50.1335 72.2845 51.273 70.7601 51.273C69.2356 51.273 68.0923 50.1335 68.0923 48.614C68.0923 47.0946 69.2356 45.9551 70.7601 45.9551C72.2845 45.9551 73.4279 47.0946 73.4279 48.614Z" fill="white"/>
<path d="M96.1676 48.614C96.1676 50.1335 95.0243 51.273 93.4998 51.273C91.9754 51.273 90.832 50.1335 90.832 48.614C90.832 47.0946 91.9754 45.9551 93.4998 45.9551C94.8972 45.9551 96.1676 47.0946 96.1676 48.614Z" fill="white"/>
<path d="M118.908 48.614C118.908 50.1335 117.765 51.273 116.24 51.273C114.716 51.273 113.572 50.1335 113.572 48.614C113.572 47.0946 114.716 45.9551 116.24 45.9551C117.765 45.9551 118.908 47.0946 118.908 48.614Z" fill="white"/>
<path d="M141.52 48.614C141.52 50.1335 140.377 51.273 138.852 51.273C137.328 51.273 136.185 50.1335 136.185 48.614C136.185 47.0946 137.328 45.9551 138.852 45.9551C140.377 45.9551 141.52 47.0946 141.52 48.614Z" fill="white"/>
<path d="M164.26 48.614C164.26 50.1335 163.117 51.273 161.592 51.273C160.068 51.273 158.924 50.1335 158.924 48.614C158.924 47.0946 160.068 45.9551 161.592 45.9551C163.117 45.9551 164.26 47.0946 164.26 48.614Z" fill="white"/>
<path d="M187 48.614C187 50.1335 185.857 51.273 184.332 51.273C182.808 51.273 181.665 50.1335 181.665 48.614C181.665 47.0946 182.808 45.9551 184.332 45.9551C185.73 45.9551 187 47.0946 187 48.614Z" fill="white"/>
<path d="M5.3356 2.65896C5.3356 4.17837 4.19226 5.31793 2.6678 5.31793C1.14334 5.31793 0 4.17837 0 2.65896C0 1.13956 1.14334 0 2.6678 0C4.19226 0 5.3356 1.13956 5.3356 2.65896Z" fill="white"/>
<path d="M28.0753 2.65896C28.0753 4.17837 26.932 5.31793 25.4075 5.31793C23.8831 5.31793 22.7397 4.17837 22.7397 2.65896C22.7397 1.13956 23.8831 0 25.4075 0C26.805 0 28.0753 1.13956 28.0753 2.65896Z" fill="white"/>
<path d="M50.6881 2.65896C50.6881 4.17837 49.5448 5.31793 48.0203 5.31793C46.4959 5.31793 45.3525 4.17837 45.3525 2.65896C45.3525 1.13956 46.6229 0 48.0203 0C49.5448 0 50.6881 1.13956 50.6881 2.65896Z" fill="white"/>
<path d="M73.4279 2.65896C73.4279 4.17837 72.2845 5.31793 70.7601 5.31793C69.2356 5.31793 68.0923 4.17837 68.0923 2.65896C68.0923 1.13956 69.3627 0 70.7601 0C72.1575 0 73.4279 1.13956 73.4279 2.65896Z" fill="white"/>
<path d="M96.1676 2.65896C96.1676 4.17837 95.0243 5.31793 93.4998 5.31793C91.9754 5.31793 90.832 4.17837 90.832 2.65896C90.832 1.13956 91.9754 0 93.4998 0C94.8972 0 96.1676 1.13956 96.1676 2.65896Z" fill="white"/>
<path d="M118.908 2.65896C118.908 4.17837 117.765 5.31793 116.24 5.31793C114.716 5.31793 113.572 4.17837 113.572 2.65896C113.572 1.13956 114.716 0 116.24 0C117.765 0 118.908 1.13956 118.908 2.65896Z" fill="white"/>
<path d="M141.52 2.65896C141.52 4.17837 140.377 5.31793 138.852 5.31793C137.328 5.31793 136.185 4.17837 136.185 2.65896C136.185 1.13956 137.328 0 138.852 0C140.377 0 141.52 1.13956 141.52 2.65896Z" fill="white"/>
<path d="M164.26 2.65896C164.26 4.17837 163.117 5.31793 161.592 5.31793C160.068 5.31793 158.924 4.17837 158.924 2.65896C158.924 1.13956 160.068 0 161.592 0C163.117 0 164.26 1.13956 164.26 2.65896Z" fill="white"/>
<path d="M187 2.65896C187 4.17837 185.857 5.31793 184.332 5.31793C182.808 5.31793 181.665 4.17837 181.665 2.65896C181.665 1.13956 182.808 0 184.332 0C185.73 0 187 1.13956 187 2.65896Z" fill="white"/>
<path d="M5.3356 17.9773C5.3356 19.4967 4.19226 20.6363 2.6678 20.6363C1.14334 20.6363 0 19.3701 0 17.9773C0 16.4579 1.14334 15.3184 2.6678 15.3184C4.19226 15.3184 5.3356 16.4579 5.3356 17.9773Z" fill="white"/>
<path d="M28.0753 17.9773C28.0753 19.4967 26.932 20.6363 25.4075 20.6363C23.8831 20.6363 22.7397 19.4967 22.7397 17.9773C22.7397 16.4579 23.8831 15.3184 25.4075 15.3184C26.805 15.3184 28.0753 16.4579 28.0753 17.9773Z" fill="white"/>
<path d="M50.6881 17.9773C50.6881 19.4967 49.5448 20.6363 48.0203 20.6363C46.4959 20.6363 45.3525 19.4967 45.3525 17.9773C45.3525 16.4579 46.4959 15.3184 48.0203 15.3184C49.5448 15.3184 50.6881 16.4579 50.6881 17.9773Z" fill="white"/>
<path d="M73.4279 17.9773C73.4279 19.4967 72.2845 20.6363 70.7601 20.6363C69.2356 20.6363 68.0923 19.4967 68.0923 17.9773C68.0923 16.4579 69.2356 15.3184 70.7601 15.3184C72.2845 15.3184 73.4279 16.4579 73.4279 17.9773Z" fill="white"/>
<path d="M96.1676 17.9773C96.1676 19.4967 95.0243 20.6363 93.4998 20.6363C91.9754 20.6363 90.832 19.4967 90.832 17.9773C90.832 16.4579 91.9754 15.3184 93.4998 15.3184C94.8972 15.3184 96.1676 16.4579 96.1676 17.9773Z" fill="white"/>
<path d="M118.908 17.9773C118.908 19.4967 117.765 20.6363 116.24 20.6363C114.716 20.6363 113.572 19.4967 113.572 17.9773C113.572 16.4579 114.716 15.3184 116.24 15.3184C117.765 15.3184 118.908 16.4579 118.908 17.9773Z" fill="white"/>
<path d="M141.52 17.9773C141.52 19.4967 140.377 20.6363 138.852 20.6363C137.328 20.6363 136.185 19.4967 136.185 17.9773C136.185 16.4579 137.328 15.3184 138.852 15.3184C140.377 15.3184 141.52 16.4579 141.52 17.9773Z" fill="white"/>
<path d="M164.26 17.9773C164.26 19.4967 163.117 20.6363 161.592 20.6363C160.068 20.6363 158.924 19.4967 158.924 17.9773C158.924 16.4579 160.068 15.3184 161.592 15.3184C163.117 15.3184 164.26 16.4579 164.26 17.9773Z" fill="white"/>
<path d="M187 17.9773C187 19.4967 185.857 20.6363 184.332 20.6363C182.808 20.6363 181.665 19.4967 181.665 17.9773C181.665 16.4579 182.808 15.3184 184.332 15.3184C185.73 15.3184 187 16.4579 187 17.9773Z" fill="white"/>
<path d="M5.3356 63.9324C5.3356 65.4518 4.19226 66.5914 2.6678 66.5914C1.14334 66.5914 0 65.4518 0 63.9324C0 62.413 1.14334 61.2734 2.6678 61.2734C4.19226 61.2734 5.3356 62.5396 5.3356 63.9324Z" fill="white"/>
<path d="M28.0753 63.9324C28.0753 65.4518 26.932 66.5914 25.4075 66.5914C23.8831 66.5914 22.7397 65.4518 22.7397 63.9324C22.7397 62.413 23.8831 61.2734 25.4075 61.2734C26.805 61.2734 28.0753 62.5396 28.0753 63.9324Z" fill="white"/>
<path d="M50.6881 63.9324C50.6881 65.4518 49.5448 66.5914 48.0203 66.5914C46.4959 66.5914 45.3525 65.4518 45.3525 63.9324C45.3525 62.413 46.4959 61.2734 48.0203 61.2734C49.5448 61.2734 50.6881 62.5396 50.6881 63.9324Z" fill="white"/>
<path d="M73.4279 63.9324C73.4279 65.4518 72.2845 66.5914 70.7601 66.5914C69.2356 66.5914 68.0923 65.4518 68.0923 63.9324C68.0923 62.413 69.2356 61.2734 70.7601 61.2734C72.2845 61.2734 73.4279 62.5396 73.4279 63.9324Z" fill="white"/>
<path d="M96.1676 63.9324C96.1676 65.4518 95.0243 66.5914 93.4998 66.5914C91.9754 66.5914 90.832 65.4518 90.832 63.9324C90.832 62.413 91.9754 61.2734 93.4998 61.2734C94.8972 61.2734 96.1676 62.5396 96.1676 63.9324Z" fill="white"/>
<path d="M118.908 63.9324C118.908 65.4518 117.765 66.5914 116.24 66.5914C114.716 66.5914 113.572 65.4518 113.572 63.9324C113.572 62.413 114.716 61.2734 116.24 61.2734C117.765 61.2734 118.908 62.5396 118.908 63.9324Z" fill="white"/>
<path d="M141.52 63.9324C141.52 65.4518 140.377 66.5914 138.852 66.5914C137.328 66.5914 136.185 65.4518 136.185 63.9324C136.185 62.413 137.328 61.2734 138.852 61.2734C140.377 61.2734 141.52 62.5396 141.52 63.9324Z" fill="white"/>
<path d="M164.26 63.9324C164.26 65.4518 163.117 66.5914 161.592 66.5914C160.068 66.5914 158.924 65.4518 158.924 63.9324C158.924 62.413 160.068 61.2734 161.592 61.2734C163.117 61.2734 164.26 62.5396 164.26 63.9324Z" fill="white"/>
<path d="M187 63.9324C187 65.4518 185.857 66.5914 184.332 66.5914C182.808 66.5914 181.665 65.4518 181.665 63.9324C181.665 62.413 182.808 61.2734 184.332 61.2734C185.73 61.2734 187 62.5396 187 63.9324Z" fill="white"/>
<path d="M5.3356 79.2508C5.3356 80.7702 4.19226 81.9097 2.6678 81.9097C1.14334 81.9097 0 80.7702 0 79.2508C0 77.7313 1.14334 76.5918 2.6678 76.5918C4.19226 76.5918 5.3356 77.7313 5.3356 79.2508Z" fill="white"/>
<path d="M28.0753 79.2508C28.0753 80.7702 26.932 81.9097 25.4075 81.9097C23.8831 81.9097 22.7397 80.7702 22.7397 79.2508C22.7397 77.7313 23.8831 76.5918 25.4075 76.5918C26.805 76.5918 28.0753 77.7313 28.0753 79.2508Z" fill="white"/>
<path d="M50.6881 79.2508C50.6881 80.7702 49.5448 81.9097 48.0203 81.9097C46.4959 81.9097 45.3525 80.7702 45.3525 79.2508C45.3525 77.7313 46.4959 76.5918 48.0203 76.5918C49.5448 76.5918 50.6881 77.7313 50.6881 79.2508Z" fill="white"/>
<path d="M70.7601 81.9097C72.2335 81.9097 73.4279 80.7193 73.4279 79.2508C73.4279 77.7823 72.2335 76.5918 70.7601 76.5918C69.2867 76.5918 68.0923 77.7823 68.0923 79.2508C68.0923 80.7193 69.2867 81.9097 70.7601 81.9097Z" fill="white"/>
<path d="M96.1676 79.2508C96.1676 80.7702 95.0243 81.9097 93.4998 81.9097C91.9754 81.9097 90.832 80.7702 90.832 79.2508C90.832 77.7313 91.9754 76.5918 93.4998 76.5918C94.8972 76.5918 96.1676 77.7313 96.1676 79.2508Z" fill="white"/>
<path d="M118.908 79.2508C118.908 80.7702 117.765 81.9097 116.24 81.9097C114.716 81.9097 113.572 80.7702 113.572 79.2508C113.572 77.7313 114.716 76.5918 116.24 76.5918C117.765 76.5918 118.908 77.7313 118.908 79.2508Z" fill="white"/>
<path d="M141.52 79.2508C141.52 80.7702 140.377 81.9097 138.852 81.9097C137.328 81.9097 136.185 80.7702 136.185 79.2508C136.185 77.7313 137.328 76.5918 138.852 76.5918C140.377 76.5918 141.52 77.7313 141.52 79.2508Z" fill="white"/>
<path d="M161.592 81.9097C163.065 81.9097 164.26 80.7193 164.26 79.2508C164.26 77.7823 163.065 76.5918 161.592 76.5918C160.119 76.5918 158.924 77.7823 158.924 79.2508C158.924 80.7193 160.119 81.9097 161.592 81.9097Z" fill="white"/>
<path d="M187 79.2508C187 80.7702 185.857 81.9097 184.332 81.9097C182.808 81.9097 181.665 80.7702 181.665 79.2508C181.665 77.7313 182.808 76.5918 184.332 76.5918C185.73 76.5918 187 77.7313 187 79.2508Z" fill="white"/>
<path d="M5.3356 94.5691C5.3356 96.0885 4.19226 97.2281 2.6678 97.2281C1.14334 97.2281 0 96.0885 0 94.5691C0 93.0497 1.14334 91.9102 2.6678 91.9102C4.19226 91.9102 5.3356 93.0497 5.3356 94.5691Z" fill="white"/>
<path d="M28.0753 94.5691C28.0753 96.0885 26.932 97.2281 25.4075 97.2281C23.8831 97.2281 22.7397 96.0885 22.7397 94.5691C22.7397 93.0497 23.8831 91.9102 25.4075 91.9102C26.805 91.9102 28.0753 93.0497 28.0753 94.5691Z" fill="white"/>
<path d="M50.6881 94.5691C50.6881 96.0885 49.5448 97.2281 48.0203 97.2281C46.4959 97.2281 45.3525 96.0885 45.3525 94.5691C45.3525 93.0497 46.4959 91.9102 48.0203 91.9102C49.5448 91.9102 50.6881 93.0497 50.6881 94.5691Z" fill="white"/>
<path d="M73.4279 94.5691C73.4279 96.0885 72.2845 97.2281 70.7601 97.2281C69.2356 97.2281 68.0923 96.0885 68.0923 94.5691C68.0923 93.0497 69.2356 91.9102 70.7601 91.9102C72.2845 91.9102 73.4279 93.0497 73.4279 94.5691Z" fill="white"/>
<path d="M96.1676 94.5691C96.1676 96.0885 95.0243 97.2281 93.4998 97.2281C91.9754 97.2281 90.832 96.0885 90.832 94.5691C90.832 93.0497 91.9754 91.9102 93.4998 91.9102C94.8972 91.9102 96.1676 93.0497 96.1676 94.5691Z" fill="white"/>
<path d="M118.908 94.5691C118.908 96.0885 117.765 97.2281 116.24 97.2281C114.716 97.2281 113.572 96.0885 113.572 94.5691C113.572 93.0497 114.716 91.9102 116.24 91.9102C117.765 91.9102 118.908 93.0497 118.908 94.5691Z" fill="white"/>
<path d="M141.52 94.5691C141.52 96.0885 140.377 97.2281 138.852 97.2281C137.328 97.2281 136.185 96.0885 136.185 94.5691C136.185 93.0497 137.328 91.9102 138.852 91.9102C140.377 91.9102 141.52 93.0497 141.52 94.5691Z" fill="white"/>
<path d="M164.26 94.5691C164.26 96.0885 163.117 97.2281 161.592 97.2281C160.068 97.2281 158.924 96.0885 158.924 94.5691C158.924 93.0497 160.068 91.9102 161.592 91.9102C163.117 91.9102 164.26 93.0497 164.26 94.5691Z" fill="white"/>
<path d="M187 94.5691C187 96.0885 185.857 97.2281 184.332 97.2281C182.808 97.2281 181.665 96.0885 181.665 94.5691C181.665 93.0497 182.808 91.9102 184.332 91.9102C185.73 91.9102 187 93.0497 187 94.5691Z" fill="white"/>
<path d="M5.3356 109.887C5.3356 111.407 4.19226 112.546 2.6678 112.546C1.14334 112.546 0 111.407 0 109.887C0 108.368 1.14334 107.229 2.6678 107.229C4.19226 107.229 5.3356 108.495 5.3356 109.887Z" fill="white"/>
<path d="M28.0753 109.887C28.0753 111.407 26.932 112.546 25.4075 112.546C23.8831 112.546 22.7397 111.407 22.7397 109.887C22.7397 108.368 23.8831 107.229 25.4075 107.229C26.805 107.229 28.0753 108.495 28.0753 109.887Z" fill="white"/>
<path d="M50.6881 109.887C50.6881 111.407 49.5448 112.546 48.0203 112.546C46.4959 112.546 45.3525 111.407 45.3525 109.887C45.3525 108.368 46.4959 107.229 48.0203 107.229C49.5448 107.229 50.6881 108.495 50.6881 109.887Z" fill="white"/>
<path d="M73.4279 109.887C73.4279 111.407 72.2845 112.546 70.7601 112.546C69.2356 112.546 68.0923 111.407 68.0923 109.887C68.0923 108.368 69.2356 107.229 70.7601 107.229C72.2845 107.229 73.4279 108.495 73.4279 109.887Z" fill="white"/>
<path d="M96.1676 109.887C96.1676 111.407 95.0243 112.546 93.4998 112.546C91.9754 112.546 90.832 111.407 90.832 109.887C90.832 108.368 91.9754 107.229 93.4998 107.229C94.8972 107.229 96.1676 108.495 96.1676 109.887Z" fill="white"/>
<path d="M118.908 109.887C118.908 111.407 117.765 112.546 116.24 112.546C114.716 112.546 113.572 111.407 113.572 109.887C113.572 108.368 114.716 107.229 116.24 107.229C117.765 107.229 118.908 108.495 118.908 109.887Z" fill="white"/>
<path d="M141.52 109.887C141.52 111.407 140.377 112.546 138.852 112.546C137.328 112.546 136.185 111.407 136.185 109.887C136.185 108.368 137.328 107.229 138.852 107.229C140.377 107.229 141.52 108.495 141.52 109.887Z" fill="white"/>
<path d="M164.26 109.887C164.26 111.407 163.117 112.546 161.592 112.546C160.068 112.546 158.924 111.407 158.924 109.887C158.924 108.368 160.068 107.229 161.592 107.229C163.117 107.229 164.26 108.495 164.26 109.887Z" fill="white"/>
<path d="M187 109.887C187 111.407 185.857 112.546 184.332 112.546C182.808 112.546 181.665 111.407 181.665 109.887C181.665 108.368 182.808 107.229 184.332 107.229C185.73 107.229 187 108.495 187 109.887Z" fill="white"/>
</g>
<defs>
<clipPath id="clip0_2234_8808">
<rect width="187" height="137" fill="white"/>
</clipPath>
</defs>
</svg>
